<svg xmlns="http://www.w3.org/2000/svg" viewBox="0 0 183 276"><path d="M-410.667-28.507l25.3-14.552c.333.48.892.798 1.53.798a1.87 1.87 0 001.53-.798l25.302 14.552-.002 29.114a1.866 1.866 0 00-1.706 1.853c0 .286.065.55.175.788l-25.298 14.554-26.831-15.436v-30.873zm53.992 0l26.832-15.431 25.306 14.554a1.84 1.84 0 00-.18.783c0 .978.752 1.768 1.708 1.853V2.366l-4.463 2.57-22.37 12.866-25.3-14.553c.113-.238.18-.503.18-.789a1.87 1.87 0 00-1.713-1.853v-29.114zm26.998 46.596l9.574-5.51 17.263-9.925 25.304 14.555c-.112.24-.18.502-.18.786 0 .975.754 1.767 1.707 1.85v29.118l-26.83 15.432-25.304-14.553c.113-.241.176-.502.176-.784 0-.978-.754-1.774-1.71-1.855V18.089zm54.001 1.757a1.867 1.867 0 001.71-1.85c0-.285-.07-.55-.181-.787l25.308-14.555 26.833 15.435v30.874l-13.421 7.717-11.88 6.836a1.876 1.876 0 00-3.068 0l-25.3-14.553V19.846zm26.999 46.596a1.868 1.868 0 001.71-1.857 1.85 1.85 0 00-.18-.783l11.885-6.84 13.42-7.713 26.83 15.434V93.8a1.86 1.86 0 00-1.71 1.849c0 .285.066.548.179.785l-11.882 6.842-13.417 7.717-26.835-15.44V66.443zm26.996 44.838l13.421-7.723 11.882-6.835c.338.483.894.801 1.533.8.63 0 1.193-.317 1.535-.8l11.877 6.835 13.42 7.723v29.112a1.87 1.87 0 00-1.713 1.854c0 .283.067.544.183.788l-25.302 14.553-25.3-14.555c.106-.242.179-.503.177-.786a1.867 1.867 0 00-1.713-1.854V111.28zm53.83-.287l-13.411-7.719-11.885-6.84c.11-.237.18-.5.18-.785 0-.976-.756-1.768-1.713-1.849V64.683l25.302-14.556c.337.483.89.8 1.527.798.639 0 1.193-.315 1.533-.798l11.887 6.838 13.412 7.718V93.8a1.86 1.86 0 00-1.708 1.849c0 .285.07.548.18.787l-25.304 14.557zm.168.287l5.222-3.007 20.074-11.55a1.873 1.873 0 003.072 0l25.296 14.557v29.112a1.862 1.862 0 00-1.704 1.854c0 .283.06.544.177.786l-11.889 6.839-13.418 7.716-25.3-14.555c.115-.242.182-.503.182-.786 0-.974-.753-1.77-1.712-1.854V111.28zm26.831 77.752l25.346 14.578 1.488.857v30.879l-25.299 14.544a1.883 1.883 0 00-3.069.002l-25.297-14.546v-29.122a1.867 1.867 0 001.712-1.853c0-.283-.067-.543-.185-.788l25.304-14.551zm27 15.151l-26.835-15.438v-30.874l13.418-7.718 11.887-6.834c.335.48.892.795 1.53.799a1.87 1.87 0 001.532-.8l25.304 14.553-.001 29.116a1.872 1.872 0 00-1.714 1.854c.002.283.067.547.181.783l-25.302 14.559zm-27-139.786l-13.416-7.717-11.885-6.838c.115-.238.182-.502.182-.784 0-.978-.753-1.774-1.712-1.857V18.09l26.83-15.435 25.307 14.555a1.841 1.841 0 00-.18.786c0 .975.75 1.767 1.708 1.85v29.118l-26.834 15.434zm-27.163 170.949l-26.83 15.43-25.3-14.553a1.94 1.94 0 00.179-.792c0-.975-.756-1.766-1.715-1.85v-29.114l26.836-15.435 25.302 14.551a1.82 1.82 0 00-.183.788c0 .976.755 1.768 1.71 1.853v29.122zm81.327-77.475l26.832-15.434 13.415 7.717 11.886 6.838a1.823 1.823 0 00-.183.784c0 .978.755 1.769 1.71 1.852l.003 29.117-26.83 15.438-25.303-14.559c.11-.236.178-.5.177-.783a1.864 1.864 0 00-1.706-1.854l-.001-29.116zm53.83-1.968c-.633 0-1.196.32-1.53.801l-11.892-6.835-13.41-7.72v-29.113a1.862 1.862 0 001.707-1.854c0-.283-.067-.546-.18-.784l25.306-14.559 13.42 7.718 13.412 7.723v30.87l-25.304 14.554c-.336-.48-.893-.8-1.528-.8zm26.996-44.91l-13.412-7.717-13.42-7.722v-30.87l25.298-14.557c.34.483.9.8 1.536.8.633 0 1.192-.317 1.535-.8l25.297 14.556-.003 29.117a1.857 1.857 0 00-1.706 1.849c0 .285.07.548.173.785l-25.298 14.559zm.166.287l2.236-1.287 23.066-13.27a1.868 1.868 0 003.063 0l25.3 14.557v30.868l-13.415 7.723-11.885 6.833a1.87 1.87 0 00-1.532-.8c-.634 0-1.192.32-1.53.8l-25.302-14.556-.001-30.868zm26.831 77.752l25.898 14.895.935.54.001 30.879-25.302 14.546a1.873 1.873 0 00-3.06 0l-25.302-14.546-.001-29.122a1.866 1.866 0 001.712-1.852 1.88 1.88 0 00-.178-.789l25.297-14.551zm26.999 15.147l-26.827-15.434v-29.117a1.864 1.864 0 001.708-1.852c0-.279-.065-.545-.18-.784l11.884-6.839 13.413-7.716 25.305 14.555a1.86 1.86 0 00-.18.786 1.86 1.86 0 001.708 1.85l.002 29.117-26.833 15.434zM21.135 64.397l-4.608-2.65-20.69-11.905c.112-.241.179-.502.179-.784 0-.978-.754-1.774-1.71-1.857V18.09l25.3-14.555a1.87 1.87 0 003.06 0l25.302 14.555.001 29.114a1.86 1.86 0 00-1.71 1.852c0 .282.068.546.178.787L21.135 64.397zm54.157 95.231a1.861 1.861 0 001.717-1.852 1.82 1.82 0 00-.179-.784l25.3-14.555 26.837 15.434-.003 29.116a1.869 1.869 0 00-1.71 1.854c0 .283.067.547.178.783l-25.3 14.555-26.84-15.434v-29.117zm27.004 44.84l3.287-1.89 22.011-12.67c.342.487.9.797 1.54.797.631 0 1.192-.31 1.528-.797l25.303 14.56v29.113a1.864 1.864 0 00-1.714 1.85c0 .28.07.546.182.792l-11.885 6.828-13.413 7.726-25.305-14.554c.115-.241.177-.51.177-.79 0-.975-.751-1.768-1.71-1.852v-29.114zm26.839 79.43c.63 0 1.19-.317 1.527-.796l25.303 14.553v30.873l-25.303 14.554a1.852 1.852 0 00-1.532-.796c-.637 0-1.194.31-1.533.804l-25.3-14.562v-30.873l25.297-14.553c.342.479.9.797 1.54.797zm26.993 13.474l-25.303-14.559c.115-.243.18-.502.18-.79 0-.976-.754-1.763-1.708-1.85v-29.115l13.414-7.712 11.885-6.841c.34.482.894.799 1.532.799.634 0 1.192-.317 1.532-.798l1.823 1.051 23.474 13.505v29.11a1.863 1.863 0 00-1.528 2.641l-25.301 14.559zm-26.995-139.785l-23.39-13.457-3.447-1.98v-29.114a1.863 1.863 0 001.711-1.852c0-.285-.06-.548-.177-.786l25.305-14.559 26.828 15.44.002 29.113a1.867 1.867 0 00-1.715 1.854c.001.283.065.544.178.786l-25.295 14.555zM-411-28.693V2.559l27.164 15.627 25.464-14.649c.338.476.898.797 1.534.797.635 0 1.194-.32 1.53-.797l25.299 14.552v29.112c-.951.09-1.709.88-1.709 1.857a1.873 1.873 0 003.41 1.069l25.468 14.65 27-15.528 25.3 14.553c-.112.24-.176.505-.176.782 0 .978.75 1.775 1.712 1.858v29.302l26.998 15.536.001 29.112a1.869 1.869 0 00-1.718 1.854 1.87 1.87 0 001.881 1.868 1.86 1.86 0 001.53-.795l25.467 14.648 25.466-14.648c.338.48.892.795 1.528.795a1.855 1.855 0 001.533-.795l25.3 14.552v30.874l-25.3 14.555a1.854 1.854 0 00-1.53-.796 1.85 1.85 0 00-1.531.796l-25.466-14.654-27.16 15.627v29.306a1.87 1.87 0 00-1.718 1.854 1.872 1.872 0 003.41 1.072l25.468 14.647 26.994-15.529 25.303 14.557c-.108.24-.18.5-.18.789 0 1.028.841 1.869 1.875 1.867a1.87 1.87 0 001.702-2.656l25.47-14.65v-31.063l25.293-14.56c.338.488.9.798 1.536.8.63 0 1.19-.312 1.532-.8l25.464 14.658 27.162-15.632v-29.305a1.866 1.866 0 001.713-1.85c0-.28-.067-.547-.176-.786l25.295-14.555 25.307 14.555a1.835 1.835 0 00-.182.784c0 .978.749 1.769 1.709 1.852l-.003 29.117L-4.325 203.3a1.871 1.871 0 00-1.537-.796 1.873 1.873 0 00-1.875 1.867c0 .976.752 1.768 1.712 1.853l.002 29.307 25.46 14.647a1.985 1.985 0 00-.18.79c0 1.03.842 1.868 1.878 1.87 1.037 0 1.88-.84 1.88-1.871 0-.287-.068-.547-.183-.787l25.47-14.65v-31.063l26.829-15.435 26.833 15.435-.002 29.114a1.867 1.867 0 00-1.708 1.852 1.875 1.875 0 003.41 1.073l25.306 14.552v29.113c-.961.089-1.715.876-1.715 1.853 0 .287.066.545.177.79l-25.468 14.65-.002 31.252.084.045 25.386 14.605a1.867 1.867 0 001.699 2.66 1.872 1.872 0 001.874-1.873c0-.28-.065-.546-.18-.787l25.467-14.65v-31.061l25.302-14.553c.34.479.899.797 1.531.794a1.87 1.87 0 001.875-1.872c0-.977-.754-1.764-1.707-1.853v-29.113l-.167-.283-25.302-14.552c.116-.24.179-.511.179-.792a1.862 1.862 0 00-1.71-1.85v-29.114l-.167-.284-25.301-14.559c.115-.236.18-.5.18-.783 0-.98-.754-1.767-1.71-1.852l-.002-29.12 25.303-14.55c.336.48.894.799 1.53.795a1.864 1.864 0 001.877-1.868 1.87 1.87 0 00-1.71-1.854v-29.308l-27.16-15.623-25.468 14.648a1.89 1.89 0 00-1.535-.796 1.874 1.874 0 00-1.876 1.87c0 .976.756 1.768 1.71 1.853l-.002 29.114-25.296 14.554a1.88 1.88 0 00-1.535-.8c-.63 0-1.19.32-1.53.8L48.3 142.15v-31.066L22.836 96.436c.115-.24.18-.502.18-.787 0-.977-.756-1.768-1.712-1.851L21.3 64.683l25.3-14.556a1.875 1.875 0 003.41-1.073 1.863 1.863 0 00-1.708-1.853V17.897L22.835 3.247c.11-.236.18-.501.18-.788 0-1.028-.843-1.87-1.88-1.87a1.878 1.878 0 00-1.878 1.871c0 .284.074.55.182.788L-6.028 17.899v29.304a1.869 1.869 0 00-1.709 1.855c0 .282.067.546.176.784l-25.466 14.65.002 31.063-25.303 14.555a1.87 1.87 0 00-3.402 1.073c0 .976.753 1.768 1.71 1.853v29.112l-26.832 15.439-25.303-14.553c.113-.249.176-.505.176-.788 0-.974-.75-1.77-1.702-1.854v-29.308l-25.47-14.65c.112-.237.173-.5.175-.785a1.86 1.86 0 00-1.714-1.849l.003-29.117 27.006-15.531V19.845a1.859 1.859 0 001.702-1.85 1.87 1.87 0 00-1.873-1.869c-.638 0-1.195.312-1.53.796l-25.47-14.65-27.163 15.625v29.304a1.873 1.873 0 00-1.711 1.857c0 .279.067.543.181.784l-25.3 14.555-26.836-15.435V17.896L-248.84 2.272l-25.468 14.65c-.34-.484-.9-.797-1.536-.796a1.87 1.87 0 00-1.531.796l-25.303-14.557.001-29.113a1.864 1.864 0 001.71-1.853 1.873 1.873 0 00-3.405-1.069l-25.472-14.654-26.995 15.532-25.303-14.556c.116-.238.183-.502.183-.784A1.874 1.874 0 00-383.836-46a1.873 1.873 0 00-1.876 1.868c0 .282.064.546.178.784L-411-28.693z" fill="#010028" fill-rule="evenodd" opacity=".2"/></svg>